<?xml version="1.0" standalone="no"?>
<!DOCTYPE svg PUBLIC "-//W3C//DTD SVG 20010904//EN"
 "http://www.w3.org/TR/2001/REC-SVG-20010904/DTD/svg10.dtd">
<svg version="1.0" xmlns="http://www.w3.org/2000/svg"
 width="624.000000pt" height="264.000000pt" viewBox="0 0 624.000000 264.000000"
 preserveAspectRatio="xMidYMid meet">

<g transform="translate(0.000000,264.000000) scale(0.100000,-0.100000)"
fill="#000000" stroke="none">
<path d="M5916 1685 c4 -8 8 -15 10 -15 2 0 4 7 4 15 0 8 -4 15 -10 15 -5 0
-7 -7 -4 -15z"/>
<path d="M5966 1692 c-2 -4 -1 -14 5 -22 7 -12 9 -10 9 8 0 23 -5 28 -14 14z"/>
<path d="M5862 1660 c0 -14 2 -19 5 -12 2 6 2 18 0 25 -3 6 -5 1 -5 -13z"/>
<path d="M5901 1654 c0 -11 3 -14 6 -6 3 7 2 16 -1 19 -3 4 -6 -2 -5 -13z"/>
<path d="M5939 1653 c-13 -16 -12 -17 4 -4 16 13 21 21 13 21 -2 0 -10 -8 -17
-17z"/>
<path d="M1726 1629 c-62 -15 -100 -44 -131 -100 -32 -59 -46 -170 -26 -207
19 -36 69 -56 142 -56 131 0 210 83 217 229 5 86 -14 117 -82 134 -51 13 -66
13 -120 0z m93 -75 c21 -15 23 -22 18 -74 -6 -70 -28 -115 -67 -135 -40 -21
-76 -19 -101 6 -17 17 -20 30 -17 68 12 118 95 185 167 135z"/>
<path d="M2445 1629 c-94 -22 -157 -115 -159 -231 -1 -57 2 -70 23 -91 33 -36
105 -52 173 -38 99 21 163 101 174 219 6 63 -6 94 -46 123 -31 22 -111 31
-165 18z m91 -67 c6 -4 16 -17 23 -30 17 -32 -3 -123 -35 -162 -43 -50 -117
-50 -144 1 -15 27 4 119 32 154 30 39 93 58 124 37z"/>
<path d="M4916 1629 c-94 -23 -160 -120 -161 -236 0 -77 23 -107 98 -123 107
-23 208 25 249 117 24 55 33 151 16 182 -30 56 -117 81 -202 60z m94 -69 c46
-25 26 -156 -31 -204 -48 -41 -110 -31 -129 20 -13 32 5 115 32 149 32 41 88
56 128 35z"/>
<path d="M347 1623 c-6 -9 -77 -328 -77 -343 0 -5 17 -10 38 -10 l39 0 23 110
c13 60 26 107 30 105 4 -3 11 -46 15 -96 3 -51 9 -98 12 -105 3 -9 22 -14 52
-14 l46 0 50 110 c28 60 51 106 53 102 1 -5 -9 -51 -23 -103 -14 -52 -25 -97
-25 -101 0 -5 18 -8 40 -8 22 0 40 2 40 4 0 4 59 265 75 334 5 21 3 22 -59 22
l-64 0 -20 -47 c-11 -27 -38 -84 -59 -128 l-38 -80 -6 40 c-4 22 -10 79 -14
128 l-7 87 -58 0 c-33 0 -61 -3 -63 -7z"/>
<path d="M756 1508 c-15 -68 -33 -149 -41 -180 l-13 -58 42 0 43 0 23 103 c12
56 31 137 40 180 l18 77 -43 0 -42 0 -27 -122z"/>
<path d="M967 1609 c-107 -57 -153 -279 -66 -324 22 -12 54 -15 126 -13 l97 3
7 33 6 32 -74 0 c-95 0 -113 9 -113 58 0 55 19 112 45 138 22 21 33 24 108 24
79 0 85 1 91 23 12 46 11 47 -91 47 -78 -1 -106 -5 -136 -21z"/>
<path d="M1240 1626 c0 -4 -44 -201 -75 -334 -5 -22 -3 -23 37 -20 l43 3 14
63 14 62 53 0 c71 0 88 -17 81 -82 l-6 -48 49 0 50 0 0 64 c0 44 -5 67 -15 76
-13 11 -11 15 10 32 56 44 73 130 33 168 -20 18 -35 20 -155 20 -73 0 -133 -2
-133 -4z m218 -91 c5 -39 -21 -58 -87 -63 -35 -2 -67 0 -72 5 -5 5 -4 24 2 46
l10 38 72 -3 c63 -3 72 -5 75 -23z"/>
<path d="M2000 1627 c0 -3 -55 -246 -75 -335 -5 -22 -3 -23 37 -20 l42 3 28
120 c15 66 30 130 33 143 5 21 10 23 63 20 54 -3 57 -5 60 -30 4 -35 -29 -68
-68 -68 -23 0 -30 -5 -30 -19 0 -11 -3 -26 -6 -35 -9 -23 70 -22 116 2 76 38
108 152 57 200 -21 20 -34 22 -140 22 -64 0 -117 -1 -117 -3z"/>
<path d="M2691 1463 c10 -93 18 -174 18 -180 1 -9 17 -13 49 -13 l47 0 60 117
c67 130 72 130 74 -2 2 -109 5 -115 60 -115 l46 0 57 108 c32 59 76 140 98
180 l41 72 -45 0 -44 0 -63 -121 c-71 -139 -77 -138 -78 3 -1 114 -3 118 -57
118 l-44 0 -63 -125 -62 -126 -7 38 c-4 21 -7 61 -8 88 0 28 -3 67 -6 88 -6
36 -8 37 -48 37 l-42 0 17 -167z"/>
<path d="M3305 1611 c-77 -46 -120 -135 -113 -231 7 -92 23 -104 150 -108 107
-4 118 0 118 46 0 21 -4 22 -74 22 -79 0 -106 13 -106 50 0 18 10 20 102 22
l102 3 7 33 6 32 -98 0 c-110 0 -121 9 -74 55 22 23 32 25 110 25 61 0 85 3
85 13 0 6 3 22 6 35 6 22 5 22 -92 22 -79 0 -105 -4 -129 -19z"/>
<path d="M3544 1450 l-40 -180 42 0 42 0 14 63 13 62 53 3 c70 4 82 -7 82 -74
l0 -54 44 0 43 0 7 51 c5 36 3 59 -8 80 -13 27 -13 30 4 39 29 16 63 95 55
130 -11 52 -35 60 -180 60 l-131 0 -40 -180z m251 75 c0 -38 -31 -55 -102 -55
-57 0 -58 2 -47 59 l7 32 71 -3 71 -3 0 -30z"/>
<path d="M4150 1619 c-72 -29 -121 -112 -128 -216 -4 -70 -4 -73 26 -102 l30
-31 121 0 121 0 6 28 c3 15 12 52 19 82 7 30 16 67 19 83 l6 27 -95 0 c-87 0
-95 -2 -95 -19 0 -11 -3 -26 -6 -35 -5 -12 4 -15 43 -18 45 -3 48 -5 45 -28
-4 -46 -9 -50 -66 -50 -73 0 -90 17 -83 82 8 63 32 113 63 127 14 6 67 11 119
11 69 0 95 3 95 13 0 6 3 22 6 35 6 22 6 22 -107 21 -63 0 -125 -5 -139 -10z"/>
<path d="M4445 1618 c-6 -18 -75 -329 -75 -340 0 -4 18 -8 40 -8 35 0 40 3 46
28 24 109 19 102 78 102 67 0 81 -15 78 -81 l-2 -49 44 0 c41 0 44 2 50 31 10
51 7 83 -9 106 -14 20 -14 23 5 33 25 13 60 80 60 115 0 14 -11 37 -25 50 -23
24 -29 25 -155 25 -95 0 -132 -3 -135 -12z m210 -93 c0 -38 -31 -55 -104 -55
l-53 0 6 31 c3 17 6 38 6 46 0 11 15 13 73 11 l72 -3 0 -30z"/>
<path d="M5167 1508 c-34 -152 -34 -182 -4 -212 53 -53 208 -39 261 24 28 34
35 54 70 208 l24 102 -44 0 c-24 0 -44 -2 -44 -5 0 -26 -55 -245 -66 -262 -15
-24 -70 -39 -103 -28 -44 14 -43 43 13 278 3 14 -3 17 -38 17 l-42 0 -27 -122z"/>
<path d="M5551 1593 c-11 -42 -71 -310 -71 -318 0 -3 18 -5 40 -5 45 0 38 -16
80 170 l26 115 57 3 c66 3 77 -9 57 -58 -10 -24 -20 -31 -51 -36 -22 -4 -39
-12 -39 -18 0 -6 -3 -21 -6 -33 -6 -21 -3 -23 36 -23 87 0 150 55 158 139 3
36 -1 52 -18 74 -21 27 -23 27 -140 27 l-119 0 -10 -37z"/>
<path d="M1906 1178 c-8 -27 -26 -107 -26 -117 0 -21 29 -11 32 12 2 18 10 23
45 25 30 2 47 10 58 25 19 27 19 32 -1 51 -19 19 -103 22 -108 4z m81 -19 c20
-20 3 -39 -33 -39 -37 0 -39 2 -24 31 12 21 40 25 57 8z"/>
<path d="M2082 1180 c-20 -9 -52 -63 -52 -89 0 -21 33 -41 66 -41 47 0 84 37
84 84 0 50 -40 69 -98 46z m52 -16 c21 -8 20 -52 -1 -76 -9 -10 -27 -18 -40
-18 -19 0 -23 5 -23 32 0 17 7 40 17 50 18 20 23 21 47 12z"/>
<path d="M2204 1168 c3 -13 8 -44 11 -70 5 -37 10 -48 24 -48 10 0 26 18 41
48 l23 47 8 -44 c5 -24 11 -46 14 -50 12 -11 37 16 70 77 26 46 31 62 20 62
-8 0 -27 -24 -42 -52 l-27 -53 -10 53 c-5 32 -14 52 -22 52 -8 0 -26 -24 -41
-52 l-27 -53 -9 53 c-6 35 -13 52 -23 52 -10 0 -13 -7 -10 -22z"/>
<path d="M2473 1180 c-30 -12 -45 -44 -41 -88 3 -37 4 -37 51 -40 52 -3 66 15
15 20 -22 2 -34 9 -36 21 -3 14 4 17 37 17 23 0 41 5 41 10 0 6 -19 10 -42 10
l-43 1 24 19 c13 11 36 20 52 20 16 0 29 5 29 10 0 12 -57 12 -87 0z"/>
<path d="M2581 1153 c-22 -88 -23 -103 -7 -103 8 0 16 10 18 23 2 17 10 22 33
22 23 0 31 -5 33 -22 5 -34 34 -30 31 5 -1 15 4 40 12 56 12 25 11 30 -6 42
-10 8 -38 14 -62 14 -41 0 -43 -2 -52 -37z m88 8 c20 -13 -3 -41 -34 -41 -29
0 -36 9 -24 31 10 20 35 24 58 10z"/>
<path d="M2773 1180 c-27 -11 -39 -33 -48 -89 -6 -34 -4 -42 6 -39 7 2 16 15
19 29 5 21 12 24 53 27 60 4 62 22 2 22 -25 0 -45 5 -45 10 0 13 43 30 76 30
13 0 24 5 24 10 0 12 -57 12 -87 0z"/>
<path d="M2880 1149 c-18 -64 -10 -93 24 -97 66 -8 86 13 102 102 10 56 -18
43 -31 -15 -13 -58 -21 -69 -52 -69 -25 0 -26 0 -19 60 8 70 -7 82 -24 19z"/>
<path d="M3033 1133 c-13 -68 -5 -83 43 -83 44 0 53 18 12 22 -36 3 -38 10
-24 81 5 28 4 37 -7 37 -9 0 -17 -20 -24 -57z"/>
<path d="M3234 1180 c-12 -4 -24 -15 -27 -24 -12 -29 4 -45 46 -48 29 -2 42
-8 42 -18 0 -11 -14 -16 -52 -18 -70 -4 -68 -22 1 -22 58 0 86 16 86 50 0 21
-19 30 -61 30 -18 0 -29 5 -29 14 0 17 22 26 66 26 19 0 34 5 34 10 0 12 -76
12 -106 0z"/>
<path d="M3404 1180 c-45 -18 -70 -90 -42 -118 15 -15 72 -16 98 -2 22 12 44
72 35 99 -8 28 -51 37 -91 21z m59 -31 c7 -11 5 -25 -4 -45 -11 -22 -21 -29
-44 -29 -28 0 -30 2 -28 35 2 53 51 78 76 39z"/>
<path d="M3533 1173 c-4 -10 -7 -40 -8 -68 0 -48 1 -50 28 -53 16 -2 36 0 45
4 13 6 8 9 -18 13 -37 7 -38 8 -26 79 8 43 -7 61 -21 25z"/>
<path d="M3643 1133 c-13 -70 -5 -83 47 -83 45 0 63 19 79 82 14 59 14 58 -3
58 -9 0 -17 -16 -21 -42 -11 -64 -22 -80 -53 -76 -29 3 -31 12 -17 81 6 29 4
37 -7 37 -10 0 -18 -19 -25 -57z"/>
<path d="M3800 1180 c0 -5 10 -10 21 -10 19 0 21 -4 15 -30 -3 -16 -9 -43 -12
-60 -5 -22 -3 -30 8 -30 9 0 18 21 26 60 11 54 15 60 37 60 14 0 25 5 25 10 0
6 -27 10 -60 10 -33 0 -60 -4 -60 -10z"/>
<path d="M3932 1132 c-15 -70 -15 -82 -2 -82 9 0 20 35 35 108 5 24 3 32 -7
32 -9 0 -18 -21 -26 -58z"/>
<path d="M4034 1180 c-45 -18 -70 -90 -42 -118 13 -13 66 -16 93 -6 19 8 45
55 45 83 0 22 -35 51 -60 50 -8 0 -25 -4 -36 -9z m59 -31 c7 -11 5 -25 -4 -45
-11 -22 -21 -29 -44 -29 -28 0 -30 2 -28 35 2 53 51 78 76 39z"/>
<path d="M4161 1153 c-22 -87 -24 -106 -10 -101 8 3 18 23 23 46 5 23 12 42
16 42 4 0 13 -20 20 -46 11 -37 17 -44 34 -42 16 2 24 14 33 53 15 67 15 87 1
83 -7 -3 -17 -27 -24 -54 l-11 -49 -11 28 c-7 15 -15 39 -18 52 -10 40 -41 32
-53 -12z"/>
<path d="M4332 1174 c-15 -10 -22 -24 -20 -37 2 -18 11 -23 46 -25 34 -3 43
-7 40 -20 -2 -13 -16 -18 -51 -20 -65 -4 -59 -22 8 -22 47 0 57 3 71 25 21 33
5 55 -42 55 -18 0 -35 4 -39 9 -8 14 28 31 64 31 16 0 33 5 36 10 10 17 -88
12 -113 -6z"/>
<path d="M4534 1163 c-3 -16 -10 -44 -15 -63 -12 -46 -11 -50 5 -50 8 0 16 10
18 23 2 18 10 23 43 25 44 4 75 26 75 53 0 24 -30 39 -79 39 -36 0 -41 -3 -47
-27z m84 -1 c24 -16 2 -42 -34 -42 -37 0 -39 2 -24 31 11 20 36 25 58 11z"/>
<path d="M4683 1123 c-25 -40 -38 -70 -31 -72 6 -2 17 4 23 13 16 21 75 22 75
1 0 -8 9 -15 20 -15 11 0 18 5 15 13 -2 6 -9 38 -15 70 -15 78 -34 75 -87 -10z
m54 -20 c-3 -3 -13 -3 -21 -1 -15 3 -15 6 1 28 l18 25 3 -23 c2 -13 1 -26 -1
-29z"/>
<path d="M4830 1138 c-6 -29 -14 -61 -17 -70 -3 -12 1 -18 11 -18 8 0 16 10
18 23 2 17 10 22 33 22 23 0 31 -5 33 -22 2 -13 10 -23 19 -23 11 0 14 8 11
30 -3 18 1 35 9 41 7 6 13 22 13 34 0 25 -22 35 -82 35 -35 0 -36 -1 -48 -52z
m84 26 c35 -13 11 -44 -35 -44 -12 0 -19 7 -19 18 0 31 19 40 54 26z"/>
<path d="M4985 1180 c-3 -5 2 -10 13 -10 29 0 31 -7 17 -66 -10 -45 -10 -54 1
-54 8 0 16 12 20 28 20 87 20 87 47 90 15 2 27 8 27 13 0 12 -117 12 -125 -1z"/>
<path d="M5120 1138 c-6 -29 -14 -61 -17 -70 -3 -11 1 -18 10 -18 10 0 18 14
22 40 9 55 21 58 37 8 10 -29 21 -44 34 -46 18 -3 22 7 36 68 11 52 12 70 3
70 -7 0 -19 -24 -27 -52 l-14 -53 -18 53 c-13 37 -23 52 -36 52 -14 0 -21 -13
-30 -52z"/>
<path d="M5313 1180 c-30 -12 -45 -44 -41 -88 3 -37 4 -37 51 -40 52 -3 66 15
15 20 -22 2 -34 9 -36 21 -3 14 4 17 37 17 23 0 41 5 41 10 0 6 -19 10 -42 10
l-43 1 24 19 c13 11 36 20 52 20 16 0 29 5 29 10 0 12 -57 12 -87 0z"/>
<path d="M5426 1178 c-8 -27 -26 -107 -26 -117 0 -6 7 -11 15 -11 9 0 15 10
15 26 0 23 3 25 33 22 24 -2 33 -8 35 -25 5 -34 34 -30 31 5 -1 15 4 40 12 56
12 25 11 30 -6 42 -24 18 -104 19 -109 2z m83 -17 c22 -14 -5 -41 -40 -41 -32
0 -34 3 -19 31 11 20 36 24 59 10z"/>
</g>
</svg>
